<?xml version="1.0" standalone="no"?>
<!DOCTYPE svg PUBLIC "-//W3C//DTD SVG 20010904//EN"
 "http://www.w3.org/TR/2001/REC-SVG-20010904/DTD/svg10.dtd">
<svg version="1.0" xmlns="http://www.w3.org/2000/svg"
 width="512.000000pt" height="512.000000pt" viewBox="0 0 512.000000 512.000000"
 preserveAspectRatio="xMidYMid meet">

<g transform="translate(0.000000,512.000000) scale(0.100000,-0.100000)"
fill="#000000" stroke="none">
<path d="M2460 5114 c-14 -2 -52 -9 -85 -15 -342 -62 -634 -339 -728 -692 -22
-82 -22 -83 -22 -1187 l0 -1105 23 -84 c94 -345 353 -598 699 -683 122 -30
304 -30 426 0 181 45 341 136 463 264 118 124 191 255 236 419 l23 84 0 1105
c0 1104 0 1105 -22 1187 -92 345 -359 606 -703 688 -65 15 -263 28 -310 19z
m248 -345 c102 -25 193 -78 278 -163 93 -93 145 -186 169 -301 22 -104 22
-2066 0 -2170 -24 -115 -77 -208 -169 -300 -126 -124 -251 -176 -426 -176
-175 0 -300 52 -426 176 -92 92 -145 185 -169 300 -22 104 -22 2066 0 2170 41
197 200 379 388 445 114 40 238 47 355 19z"/>
<path d="M1115 2486 c-42 -18 -83 -69 -91 -113 -18 -95 19 -348 76 -527 37
-114 122 -282 197 -389 81 -117 287 -319 402 -396 193 -128 436 -223 634 -246
l57 -7 0 -239 0 -238 -234 -3 c-219 -3 -236 -4 -262 -24 -53 -39 -69 -71 -69
-137 0 -75 27 -120 89 -148 39 -17 77 -19 646 -19 569 0 607 2 646 19 62 28
89 73 89 148 0 66 -16 98 -69 137 -26 20 -43 21 -262 24 l-234 3 0 238 0 239
58 7 c197 23 440 118 633 246 115 77 321 279 402 396 169 241 268 541 271 815
1 113 -1 129 -20 154 -33 45 -69 66 -121 71 -98 10 -173 -52 -180 -150 -22
-299 -75 -474 -209 -677 -167 -256 -423 -433 -736 -511 -80 -20 -118 -23 -268
-23 -150 0 -188 3 -268 23 -313 78 -569 255 -736 511 -134 203 -187 378 -209
677 -9 116 -125 186 -232 139z"/>
</g>
</svg>
