<?xml version="1.0" standalone="no"?>
<!DOCTYPE svg PUBLIC "-//W3C//DTD SVG 20010904//EN"
 "http://www.w3.org/TR/2001/REC-SVG-20010904/DTD/svg10.dtd">
<svg version="1.0" xmlns="http://www.w3.org/2000/svg"
 width="64.000000pt" height="64.000000pt" viewBox="0 0 64.000000 64.000000"
 preserveAspectRatio="xMidYMid meet">

<g transform="translate(0.000000,64.000000) scale(0.100000,-0.100000)"
fill="#000000" stroke="none">
<path d="M415 581 c-3 -6 -39 -8 -89 -4 -146 10 -220 -21 -262 -111 -32 -68
-30 -113 7 -199 31 -73 40 -140 26 -189 l-7 -28 116 0 116 0 -6 24 c-7 30 7
42 62 51 39 6 62 26 62 54 0 6 -15 18 -32 27 l-33 17 33 14 c25 10 32 19 32
40 0 14 7 34 15 43 14 15 13 20 -5 43 -24 30 -39 121 -21 131 13 9 15 82 2 91
-5 3 -12 1 -16 -4z"/>
<path d="M550 306 c0 -2 7 -17 15 -32 8 -16 15 -40 15 -54 0 -14 -7 -38 -15
-54 -18 -34 -18 -36 -4 -36 13 0 39 62 39 95 0 30 -26 85 -40 85 -6 0 -10 -2
-10 -4z"/>
<path d="M525 264 c11 -24 11 -64 1 -86 -5 -11 -4 -18 3 -18 33 0 35 107 2
118 -11 4 -12 0 -6 -14z"/>
<path d="M493 220 c0 -39 1 -42 13 -25 8 10 14 22 14 25 0 3 -6 15 -14 25 -12
17 -13 14 -13 -25z"/>
</g>
</svg>
