<?xml version="1.0" standalone="no"?>
<!DOCTYPE svg PUBLIC "-//W3C//DTD SVG 20010904//EN"
 "http://www.w3.org/TR/2001/REC-SVG-20010904/DTD/svg10.dtd">
<svg version="1.0" xmlns="http://www.w3.org/2000/svg"
 width="512.000000pt" height="512.000000pt" viewBox="0 0 512.000000 512.000000"
 preserveAspectRatio="xMidYMid meet">

<g transform="translate(0.000000,512.000000) scale(0.100000,-0.100000)"
fill="#000000" stroke="none">
<path d="M3330 5043 c-40 -15 -70 -59 -84 -124 -4 -17 -17 -31 -36 -39 -74
-30 -104 -105 -71 -174 17 -35 19 -49 11 -70 -8 -23 -14 -26 -33 -19 -64 23
-126 -4 -162 -70 -11 -20 -25 -37 -32 -37 -6 0 -25 -14 -42 -30 -40 -40 -59
-121 -43 -188 10 -46 10 -47 -28 -88 -21 -23 -41 -55 -45 -72 -4 -20 -18 -37
-38 -50 -18 -10 -41 -36 -52 -58 -24 -46 -84 -109 -114 -119 -19 -6 -167 -117
-181 -136 -11 -15 -84 -39 -117 -39 -38 0 -67 -12 -100 -43 -12 -11 -29 -17
-38 -14 -29 12 -75 -5 -119 -44 -39 -35 -50 -39 -98 -39 -31 0 -67 -7 -87 -18
-57 -28 -72 -59 -85 -170 l-12 -100 -71 -105 c-87 -128 -105 -188 -80 -264 10
-31 15 -82 14 -148 0 -86 3 -109 26 -165 17 -43 27 -91 30 -140 2 -49 11 -90
25 -118 16 -34 19 -49 11 -70 -5 -14 -9 -51 -8 -81 2 -53 -1 -61 -61 -151 -76
-116 -106 -174 -115 -223 -4 -21 -13 -37 -21 -37 -22 0 -86 -62 -100 -97 -8
-18 -14 -43 -14 -55 0 -13 -18 -59 -41 -103 l-40 -80 3 -156 3 -156 37 -74
c52 -103 62 -148 47 -213 -6 -30 -10 -96 -7 -152 3 -91 7 -106 46 -190 23 -50
42 -96 42 -103 0 -44 131 -200 189 -224 20 -9 52 -18 72 -22 20 -3 54 -19 75
-37 60 -47 112 -68 176 -68 68 0 120 19 209 76 98 62 104 65 172 68 69 4 163
40 214 81 45 35 80 99 118 213 18 53 43 120 57 147 26 52 107 290 154 455 14
52 57 176 94 275 38 99 92 254 120 345 29 90 67 199 85 240 18 42 36 92 40
111 3 18 19 70 35 114 16 44 40 119 54 166 15 47 49 141 76 208 76 187 101
281 105 391 l4 95 31 6 c45 10 69 35 107 116 38 82 41 124 13 171 -11 18 -20
45 -20 61 0 23 5 30 29 34 65 13 131 100 163 216 26 95 24 160 -8 224 -22 43
-28 73 -36 172 -17 242 -28 326 -53 425 -29 116 -78 246 -104 275 -20 23 -81
155 -81 175 0 21 -49 80 -84 101 -30 18 -93 24 -126 12z m119 -400 c-13 -15
-28 -31 -33 -35 -5 -3 4 -22 21 -41 53 -60 87 -223 103 -482 5 -88 16 -182 24
-208 13 -45 13 -48 -2 -42 -77 31 -157 2 -192 -70 -30 -62 -29 -260 1 -322 28
-59 21 -108 -21 -141 -16 -13 -42 -44 -57 -70 -25 -43 -28 -57 -34 -197 -7
-164 -13 -188 -89 -380 -26 -66 -67 -181 -90 -255 -23 -74 -53 -153 -66 -176
-13 -22 -24 -57 -24 -76 0 -20 -14 -67 -31 -105 -17 -37 -51 -135 -76 -218
-25 -82 -74 -224 -108 -315 -35 -91 -80 -219 -100 -285 -82 -267 -136 -424
-168 -495 -19 -41 -42 -102 -52 -135 -9 -33 -23 -72 -31 -87 -18 -35 -72 -58
-138 -58 -58 0 -123 -27 -215 -89 -96 -66 -102 -67 -158 -20 -27 22 -72 47
-103 56 -66 21 -128 67 -137 102 -3 14 -23 65 -44 112 -47 105 -50 157 -14
229 30 60 31 94 4 145 -11 22 -29 67 -40 100 -10 33 -28 74 -39 90 -17 25 -20
47 -20 138 0 98 2 112 29 165 15 31 31 69 35 84 4 16 18 34 35 42 41 22 79 70
92 119 22 85 38 117 120 243 l84 129 3 105 c5 161 4 181 -16 219 -11 20 -22
69 -25 113 -4 44 -18 105 -33 145 -22 59 -25 78 -20 143 4 50 1 93 -8 128
l-13 53 59 85 c69 98 97 158 107 223 6 43 8 46 41 52 19 3 50 13 68 23 19 10
40 15 48 12 8 -3 34 1 57 9 23 8 50 15 59 15 10 0 33 14 51 30 41 36 42 36 92
10 103 -53 215 0 215 100 0 29 2 31 28 25 70 -15 202 70 202 130 0 37 1 38 43
68 21 16 46 42 55 58 10 16 25 29 35 29 36 0 87 30 107 62 24 39 25 78 5 118
-14 26 -14 33 -1 52 8 13 17 38 21 56 5 22 16 37 37 48 18 10 37 32 49 60 13
28 34 53 58 68 70 45 92 80 132 213 11 40 24 71 28 68 5 -2 21 9 36 25 36 38
47 39 14 3z"/>
</g>
</svg>
